<svg xmlns="http://www.w3.org/2000/svg" width="1440" height="900" viewBox="0 0 1440 900">
  <defs>
    <linearGradient id="bgGradient" x1="0%" y1="0%" x2="100%" y2="100%">
      <stop offset="0%" stop-color="#0f172a" />
      <stop offset="100%" stop-color="#1e293b" />
    </linearGradient>
    
    <linearGradient id="accent1" x1="0%" y1="0%" x2="100%" y2="100%">
      <stop offset="0%" stop-color="#6366f1" stop-opacity="0.2" />
      <stop offset="100%" stop-color="#8b5cf6" stop-opacity="0.1" />
    </linearGradient>
    
    <linearGradient id="accent2" x1="0%" y1="0%" x2="100%" y2="100%">
      <stop offset="0%" stop-color="#ec4899" stop-opacity="0.2" />
      <stop offset="100%" stop-color="#8b5cf6" stop-opacity="0.1" />
    </linearGradient>
    
    <pattern id="grid" width="40" height="40" patternUnits="userSpaceOnUse">
      <path d="M 40 0 L 0 0 0 40" fill="none" stroke="#ffffff" stroke-width="0.5" stroke-opacity="0.05" />
    </pattern>
  </defs>
  
  <!-- Background -->
  <rect width="1440" height="900" fill="url(#bgGradient)" />
  
  <!-- Grid pattern -->
  <rect width="1440" height="900" fill="url(#grid)" />
  
  <!-- Accent shapes -->
  <circle cx="200" cy="150" r="400" fill="url(#accent1)" opacity="0.6" />
  <circle cx="1200" cy="750" r="500" fill="url(#accent2)" opacity="0.7" />
  
  <!-- Decorative lines -->
  <path d="M0,300 Q720,400 1440,300" fill="none" stroke="#ffffff" stroke-width="2" stroke-opacity="0.05" />
  <path d="M0,600 Q720,500 1440,600" fill="none" stroke="#ffffff" stroke-width="2" stroke-opacity="0.05" />
  
  <!-- Particles -->
  <g opacity="0.2">
    <circle cx="200" cy="200" r="1" fill="#ffffff" />
    <circle cx="400" cy="300" r="1.5" fill="#ffffff" />
    <circle cx="600" cy="150" r="1" fill="#ffffff" />
    <circle cx="900" cy="250" r="2" fill="#ffffff" />
    <circle cx="1100" cy="400" r="1" fill="#ffffff" />
    <circle cx="1300" cy="200" r="1.5" fill="#ffffff" />
    <circle cx="350" cy="500" r="1" fill="#ffffff" />
    <circle cx="700" cy="650" r="1.5" fill="#ffffff" />
    <circle cx="1000" cy="600" r="1" fill="#ffffff" />
    <circle cx="1200" cy="700" r="2" fill="#ffffff" />
    <circle cx="500" cy="750" r="1" fill="#ffffff" />
    <circle cx="800" cy="800" r="1.5" fill="#ffffff" />
  </g>
</svg> 